<svg width="1016.5" height="228.5" xmlns="http://www.w3.org/2000/svg">
 <defs>
  <linearGradient y2="0.99995" x2="0.49751" y1="-0.00283" x1="0.49751" id="a">
   <stop stop-color="#196eef" offset="0"/>
   <stop stop-color="#186dee" offset="0.5"/>
   <stop stop-color="#1065e7" offset="1"/>
  </linearGradient>
  <linearGradient y2="1.00042" x2="0.49635" y1="-0.00237" x1="0.49635" id="b">
   <stop stop-color="#de5744" offset="0"/>
   <stop stop-color="#db4632" offset="0.5"/>
   <stop stop-color="#d13d29" offset="1"/>
  </linearGradient>
  <linearGradient y2="1.00038" x2="0.49632" y1="-0.00142" x1="0.49632" id="c">
   <stop stop-color="#1a6fef" offset="0"/>
   <stop stop-color="#1e72ef" offset="0.25"/>
   <stop stop-color="#166bec" offset="0.5"/>
   <stop stop-color="#1267e9" offset="0.75"/>
   <stop stop-opacity="0.87" stop-color="#1063e5" offset="1"/>
  </linearGradient>
  <linearGradient y2="1.00096" x2="0.49272" y1="-0.00235" x1="0.49272" id="d">
   <stop stop-color="#0aa561" offset="0"/>
   <stop stop-color="#009b58" offset="0.5"/>
   <stop stop-color="#00914b" offset="1"/>
  </linearGradient>
  <linearGradient y2="0.99766" x2="0.49582" y1="-0.00237" x1="0.49582" id="e">
   <stop stop-color="#de5644" offset="0"/>
   <stop stop-color="#da4531" offset="0.5"/>
   <stop stop-color="#ce3a28" offset="1"/>
  </linearGradient>
  <linearGradient y2="0.99843" x2="0.49638" y1="-0.00019" x1="0.49638" id="f">
   <stop stop-color="#ffc01a" offset="0"/>
   <stop stop-color="#ffba03" offset="0.5"/>
   <stop stop-color="#ffb300" offset="1"/>
  </linearGradient>
 </defs>
 <g>
  <title>Layer 1</title>
  <g id="svg_9">
   <path stroke="null" id="svg_2" fill="url(#a)" d="m232.65874,111.06894l28.33959,0l0,39.80388c-8.84237,2.841 -20.00752,4.39919 -31.61347,4.39919c-47.03615,0 -74.68066,-40.27899 -74.68066,-79.61656c0,-38.58178 25.005,-65.64473 59.89058,-65.64473c22.07514,0 34.9199,7.47862 46.41146,17.89591l0,12.98641l21.54724,-21.54724c-13.62869,-9.2207 -33.36346,-17.98389 -61.57108,-17.98389c-61.92301,0 -90.2274,44.30073 -90.2274,80.70756c0,51.82159 37.74506,83.03913 85.17801,83.03913c22.99897,0 43.42001,-3.51055 67.00847,-10.07415l0,-41.12364c0,-2.10281 0.92383,-3.54575 2.30518,-4.81271l7.44343,-7.44343l-50.5467,0l-9.48466,9.41427z"/>
   <path stroke="null" id="svg_3" fill="url(#b)" d="m375.61059,56.97649c-35.64224,0 -57.72618,26.04409 -57.72618,53.6886c0,23.86121 17.79121,52.19112 53.8373,52.19112c34.67442,0 55.94891,-26.09512 55.94891,-54.22355c0,-26.20158 -20.79058,-51.6465 -52.06002,-51.6465l0,-0.00968zm-5.91339,7.593c25.12906,0 36.31972,32.73878 36.31972,56.08968c0,34.72721 -26.05201,35.41349 -29.16664,35.41349c-11.92181,0 -20.25387,-7.20499 -26.49105,-16.65534c-5.49019,-8.70952 -10.8572,-24.89062 -10.8572,-40.70131c0,-15.7491 5.15497,-23.43889 13.26796,-29.09625c6.63398,-4.24082 12.84564,-5.05027 16.91841,-5.05027l0.0088,0z"/>
   <path stroke="null" id="svg_4" fill="url(#c)" d="m656.60142,56.9677c-31.12955,0 -47.96966,19.70837 -47.96966,41.71313c0,16.75212 12.00099,35.65104 36.75964,35.65104l6.26357,0s-1.70601,4.14404 -1.7148,8.1473c0,5.90459 2.12041,9.2207 6.6243,14.32377c-42.60176,2.59552 -59.72341,19.77876 -59.72341,38.24657c0,16.17231 15.48603,32.08858 48.03037,32.08858c38.52811,0 58.48284,-21.38975 58.48284,-42.3818c0,-14.79888 -7.37304,-22.91099 -26.04321,-36.90041c-5.49019,-4.26722 -6.55479,-6.98504 -6.55479,-10.17885c0,-4.57516 2.7363,-7.60268 3.73931,-8.74559c1.76847,-1.86526 4.83031,-3.99447 5.9741,-5.01508c6.27325,-5.31422 15.13322,-13.1791 15.13322,-28.87629c0,-10.76922 -4.47926,-20.03392 -14.6845,-28.70912l12.45851,0l9.36148,-9.36148l-46.13695,0l0,-0.00176zm-8.58722,7.00351c5.64856,0 10.36361,1.99723 15.3435,6.14127c5.5245,4.97988 14.35104,18.36222 14.35104,34.92078c0,17.86951 -13.88385,22.76141 -21.39766,22.76141c-3.67772,0 -8.08483,-1.02941 -11.81623,-3.58094c-8.28808,-5.37493 -16.51544,-19.68198 -16.51544,-36.70685c0,-15.36197 9.15032,-23.53567 20.03479,-23.53567zm12.32653,99.61528c2.37468,0 4.08245,0.19444 4.08245,0.19444s5.60457,4.00326 9.51985,6.99383c9.11512,7.20587 14.798,12.71366 14.798,22.52474c0,13.48792 -12.5113,24.06357 -32.77397,24.06357c-22.24143,0 -39.24078,-10.3557 -39.24078,-27.26531c0,-14.0079 11.64906,-26.06345 43.61446,-26.51128z"/>
   <path stroke="null" id="svg_5" fill="url(#d)" d="m725.47881,159.76799l42.73374,0l6.50992,-6.50992l-12.25615,-1.53092c-3.29939,-0.40473 -5.26055,-3.2554 -5.26055,-6.01809l0,-129.08106c0,-2.54273 1.17898,-3.84489 2.04034,-4.67282l7.70826,-7.70738l-36.4429,0l-9.48466,9.48466l14.16539,0l0,133.70901c0,1.90045 -0.59829,3.19381 -1.88285,4.52237l-7.83056,7.80416z"/>
   <path stroke="null" id="svg_6" fill="url(#e)" d="m842.1147,56.97649c-23.86121,0 -49.20935,18.18625 -49.20935,50.83705c0,26.96616 18.18625,55.04268 52.16561,55.04268c8.47284,0 15.44996,-1.09012 21.98716,-4.09037c7.01231,-3.22901 13.76067,-8.47284 18.68688,-15.06283c-9.29901,4.68954 -16.88321,7.76897 -26.95824,7.76897c-19.14528,0 -37.60428,-13.81346 -44.0623,-39.20559l67.63316,-27.33657c-3.90648,-13.92784 -14.92206,-27.95334 -40.23412,-27.95334l-0.0088,0zm-4.41767,7.46983c12.80253,0 22.05754,10.53166 22.05754,18.77575c0,2.66591 -1.67081,4.07365 -4.97988,5.37581l-41.57235,16.81371s-1.12531,-5.23504 -1.12531,-10.8924c0,-23.72924 17.15684,-30.07287 25.62001,-30.07287z"/>
   <path stroke="null" id="svg_7" fill="url(#f)" d="m512.55315,56.97649c-35.64224,0 -57.72618,26.04409 -57.72618,53.6886c0,23.86121 17.79121,52.19112 53.8373,52.19112c34.67442,0 55.94891,-26.09512 55.94891,-54.22355c0,-26.20158 -20.79058,-51.6465 -52.06002,-51.6465l0,-0.00968zm-5.91339,7.593c25.12906,0 36.31972,32.73878 36.31972,56.08968c0,34.72721 -26.05201,35.41349 -29.16664,35.41349c-11.92181,0 -20.25387,-7.20499 -26.49105,-16.65534c-5.49019,-8.70952 -10.8572,-24.89062 -10.8572,-40.70131c0,-15.7491 5.15497,-23.43889 13.26796,-29.09625c6.63398,-4.24082 12.84564,-5.05027 16.91841,-5.05027l0.0088,0z"/>
  </g>
 </g>
</svg>