<svg width="1016.5" height="228.5" xmlns="http://www.w3.org/2000/svg" version="1.0" preserveAspectRatio="xMidYMid meet" stroke="null">
 <g stroke="null">
  <title stroke="null">Layer 1</title>
  <g stroke="null" id="svg_12">
   <path stroke="null" d="m460.65971,109.35042c-1.99582,1.05661 -2.11322,4.34383 -2.11322,41.91212c0,42.96873 0.1174,43.67314 5.28304,43.67314c4.81344,0 5.28304,-1.87841 5.28304,-21.60177l0,-18.66674l4.69604,-4.34383c8.57027,-7.86586 18.43194,-8.80507 24.06718,-2.11322c2.93502,3.40463 2.93502,3.75683 2.93502,23.83238c0,22.18877 0.3522,23.36278 6.69185,22.65837l3.28723,-0.3522l0.2348,-22.89318c0.3522,-21.83657 0.2348,-23.12798 -2.34802,-27.47181c-3.63943,-6.33965 -7.86586,-9.15727 -14.79251,-9.86168c-8.57027,-0.82181 -13.2663,0.4696 -19.37115,5.16564l-5.40044,4.10903l0,-16.43613c0,-15.02732 -0.2348,-16.55353 -2.23062,-17.72754c-2.81762,-1.40881 -3.63943,-1.40881 -6.22225,0.1174l0,0z" id="svg_3"/>
   <path stroke="null" d="m735.93727,111.81584c-0.82181,0.82181 -1.40881,3.16982 -1.40881,5.28304c0,3.05242 0.70441,4.22643 2.93502,5.28304c4.69604,2.11322 8.80507,-0.3522 8.80507,-5.28304c0,-4.69604 -1.76101,-6.69185 -5.87004,-6.69185c-1.64361,0 -3.63943,0.587 -4.46123,1.40881l0,0z" id="svg_4"/>
   <path stroke="null" d="m415.22556,132.0088c-9.86168,9.86168 -10.33128,12.4445 -2.46542,12.4445l4.69604,0l0,20.54516c0,21.71917 0.70441,25.00639 5.51784,28.17622c3.99163,2.70022 13.0315,3.40463 18.54934,1.52621c4.10903,-1.29141 4.69604,-1.99582 4.69604,-5.04824l0,-3.52203l-7.16146,0c-11.15309,-0.1174 -11.03568,0 -11.03568,-22.42357l0,-19.25375l7.51366,0c8.21806,0 10.56608,-1.40881 9.86168,-6.10485c-0.3522,-2.46542 -0.93921,-2.70022 -8.80507,-3.05242l-8.57027,-0.3522l0,-5.75264c0,-8.21806 -2.34802,-7.74846 -12.7967,2.81762l0,0z" id="svg_5"/>
   <path stroke="null" d="m532.27426,135.17862c-1.87841,1.05661 -2.11322,3.75683 -2.11322,28.99802c0,29.35023 0.2348,30.75904 5.28304,30.75904c4.81344,0 5.28304,-1.87841 5.28304,-21.83657l0,-19.01895l4.57864,-4.10903c2.93502,-2.58282 6.33965,-4.46123 9.15727,-4.93084c8.57027,-1.40881 9.62687,-1.76101 10.33128,-4.10903c2.81762,-8.92247 -11.15309,-9.62687 -20.19296,-0.82181l-3.87423,3.63943l0,-3.75683c0,-5.04824 -4.10903,-7.39626 -8.45286,-4.81344l0,0z" id="svg_6"/>
   <path stroke="null" d="m584.2553,135.76563c-5.28304,2.34802 -10.09648,6.92665 -13.2663,12.7967c-2.11322,3.87423 -2.58282,6.69185 -2.58282,16.43613c0,9.97908 0.3522,12.4445 2.70022,16.78833c7.04405,13.1489 26.65,17.96234 43.43833,10.80088c6.69185,-2.81762 8.68767,-6.10485 5.63524,-9.15727c-1.64361,-1.64361 -2.46542,-1.76101 -7.39626,-0.2348c-7.98326,2.23062 -16.43613,2.81762 -21.48437,1.29141c-5.16564,-1.52621 -10.21388,-6.57445 -11.62269,-11.62269l-1.17401,-3.75683l20.31036,0c24.65419,0 24.77159,0 23.94978,-10.33128c-1.05661,-15.02732 -11.97489,-24.88899 -27.23701,-24.88899c-3.99163,0.1174 -9.03987,0.93921 -11.27049,1.87841l0,0zm22.89318,12.3271c2.23062,2.23062 4.34383,5.75264 4.81344,7.74846l0.82181,3.87423l-17.37533,0l-17.25793,0l0.82181,-3.28723c2.11322,-8.68767 8.80507,-13.5011 17.96234,-12.7967c5.28304,0.3522 6.92665,1.05661 10.21388,4.46123l0,0z" id="svg_7"/>
   <path stroke="null" d="m651.17382,135.76563c-5.28304,2.34802 -10.09648,6.92665 -13.2663,12.7967c-2.11322,3.87423 -2.58282,6.69185 -2.58282,16.43613c0,9.97908 0.3522,12.4445 2.70022,16.78833c7.04405,13.1489 26.65,17.96234 43.43833,10.80088c6.69185,-2.81762 8.68767,-6.10485 5.63524,-9.15727c-1.64361,-1.64361 -2.46542,-1.76101 -7.39626,-0.2348c-7.98326,2.23062 -16.43613,2.81762 -21.48437,1.29141c-5.16564,-1.52621 -10.21388,-6.57445 -11.62269,-11.62269l-1.17401,-3.75683l20.31036,0c24.65419,0 24.77159,0 23.94978,-10.33128c-1.05661,-15.02732 -11.97489,-24.88899 -27.23701,-24.88899c-3.99163,0.1174 -9.03987,0.93921 -11.27049,1.87841l0,0zm22.89318,12.3271c2.23062,2.23062 4.34383,5.75264 4.81344,7.74846l0.82181,3.87423l-17.37533,0l-17.25793,0l0.82181,-3.28723c2.11322,-8.68767 8.80507,-13.5011 17.96234,-12.7967c5.28304,0.3522 6.92665,1.05661 10.21388,4.46123l0,0z" id="svg_8"/>
   <path stroke="null" d="m736.52428,136.00043c-1.76101,1.87841 -1.99582,6.33965 -1.99582,38.8597l0,36.51168l-3.05242,1.17401c-1.64361,0.70441 -3.52203,0.82181 -4.10903,0.4696c-1.87841,-1.05661 -6.57445,0.4696 -7.39626,2.58282c-1.29141,3.40463 1.40881,6.10485 6.80925,6.92665c6.57445,1.05661 12.7967,-0.93921 15.96652,-4.93084c2.23062,-2.93502 2.34802,-4.69604 2.34802,-42.14692c0,-37.45089 -0.1174,-39.2119 -2.23062,-40.38591c-3.16982,-1.64361 -4.10903,-1.52621 -6.33965,0.93921z" id="svg_9"/>
   <path stroke="null" d="m771.04014,136.47003c-8.45286,4.57864 -11.97489,15.02732 -7.86586,23.12798c2.46542,4.69604 5.63524,6.45705 19.13635,10.56608c6.45705,1.99582 12.4445,4.46123 13.2663,5.40044c2.11322,2.46542 -0.2348,7.27886 -4.22643,8.80507c-4.34383,1.76101 -13.5011,1.40881 -19.25375,-0.587c-2.70022,-0.93921 -5.98745,-1.76101 -7.16146,-1.76101c-2.93502,0 -5.04824,4.10903 -3.40463,6.92665c3.16982,6.10485 28.17622,9.03987 36.27688,4.22643c6.33965,-3.75683 8.92247,-8.10066 8.80507,-14.79251c-0.1174,-10.21388 -4.57864,-13.85331 -23.12798,-19.25375c-10.91828,-3.16982 -12.4445,-4.57864 -10.68348,-9.86168c1.76101,-4.93084 8.33546,-6.57445 19.60595,-4.81344c9.97908,1.64361 13.0315,0.587 12.3271,-3.99163c-0.587,-3.75683 -6.33965,-5.87004 -17.96234,-6.33965c-9.39207,-0.3522 -11.15309,-0.1174 -15.73172,2.34802l0,0z" id="svg_10"/>
   <path stroke="null" d="m704.82603,182.96079c-4.34383,4.81344 -1.29141,11.97489 5.04824,11.97489c4.22643,0 7.04405,-2.70022 7.04405,-6.92665c0,-6.33965 -7.98326,-9.62687 -12.09229,-5.04824z" id="svg_11"/>
  </g>
  <path stroke="null" d="m51.3115,3.43786c-1.12891,0.77612 -1.19947,1.27002 -0.42335,4.30396c0.42335,1.90502 6.63233,27.09377 13.75856,56.02202c7.19678,28.92825 19.12087,77.11848 26.52932,107.17564c7.40846,30.05715 13.82911,55.03423 14.25245,55.59869c0.42335,0.4939 1.27003,0.91724 1.76392,0.91724c1.05835,0 164.96157,-157.41202 165.59659,-158.96426c0.21167,-0.56446 0.14112,-1.41114 -0.21167,-1.90503c-0.42335,-0.63501 -145.84071,-43.03959 -215.33907,-62.72491c-3.88062,-1.1289 -4.93897,-1.19946 -5.92676,-0.42334l0,0zm49.95414,18.48585c0.9878,0.42335 -2.18725,3.81007 -15.73415,16.7925c-9.31348,8.89015 -17.14527,16.15749 -17.4275,16.08693c-0.42335,-0.14111 -11.35963,-43.25126 -11.43019,-45.08574c0,-0.70556 40.85234,10.51295 44.59184,12.20631l0,0zm32.52664,9.17238c11.71242,3.31616 21.59036,6.27955 21.87258,6.56177c0.28223,0.28223 -6.91456,7.69068 -16.08693,16.58083c-9.10181,8.81959 -16.72194,15.94581 -16.93361,15.8047c-0.77612,-0.77612 -11.35963,-45.08574 -10.79518,-45.08574c0.42334,0 10.30128,2.75171 21.94313,6.13844zm-21.87257,17.56861c3.03393,12.27687 5.3623,22.5076 5.2212,22.64871c-0.35279,0.28223 -42.5457,-11.64185 -44.02738,-12.41798c-0.56446,-0.28222 5.2212,-6.3501 15.8047,-16.51027c9.24293,-8.81959 16.93361,-16.01636 17.14528,-16.01636c0.21167,0 2.89283,10.01905 5.85621,22.29592l0,-0.00001zm75.28401,-2.18725c11.43018,3.31616 21.37868,6.20899 22.08424,6.56177c1.05835,0.42334 -1.69336,3.38672 -15.38136,16.58083c-9.17237,8.81959 -16.93361,16.01636 -17.21583,16.01636c-0.21168,0 -2.75172,-9.4546 -5.57398,-21.02589c-2.82227,-11.50075 -5.29175,-21.66091 -5.50342,-22.57815c-0.28223,-0.84668 -0.14112,-1.55225 0.21167,-1.55225c0.28223,0 9.9485,2.68115 21.37869,5.99732l0,0zm-26.45877,-3.03394c0.21168,0.91724 2.68116,11.07741 5.57398,22.57815c2.82227,11.5713 5.00953,21.0259 4.79786,21.0259c-0.35279,0 -27.79934,-7.83179 -40.00566,-11.43018l-4.93897,-1.41114l16.58083,-16.15748c9.10181,-8.81959 16.7925,-16.08693 17.07472,-16.15749c0.28223,0 0.70556,0.70557 0.91723,1.55225l0,0zm81.63411,18.9092c12.13576,3.52784 22.36648,6.42066 22.64871,6.56177c0.56446,0.14112 -33.30277,32.94999 -34.07889,32.94999c-0.35279,0 -11.28907,-43.88627 -11.28907,-45.36796c0,-0.28223 0.14111,-0.4939 0.28223,-0.4939c0.21167,0 10.30127,2.89283 22.43703,6.35011zm-22.43703,17.35695c3.03393,12.20632 5.3623,22.36648 5.15064,22.57815c-0.42334,0.42334 -42.40458,-11.35963 -43.88627,-12.27687c-0.4939,-0.28223 5.78565,-6.91456 15.8047,-16.51027c9.17237,-8.81959 16.7925,-16.08693 17.00416,-16.08693c0.21167,0 2.89283,10.01905 5.92677,22.29592zm-126.64929,-9.59571c12.13575,3.45728 22.22536,6.42066 22.36647,6.56177c0.14112,0.14111 -7.3379,7.69068 -16.72194,16.72194c-9.31348,9.03125 -17.21583,16.15748 -17.56862,15.8047c-0.28223,-0.35279 -2.82227,-10.01905 -5.57397,-21.44925c-2.82228,-11.43018 -5.2212,-21.5198 -5.50342,-22.43703c-0.21168,-0.84668 -0.07056,-1.55225 0.21167,-1.55225c0.35278,0 10.5835,2.82227 22.78982,6.35011l0,0zm54.32867,15.52247c12.13575,3.45728 22.22536,6.42066 22.29592,6.49122c0.14111,0.14111 -7.47902,7.54957 -16.7925,16.58083l-17.07472,16.36915l-5.43287,-21.66091c-4.86841,-19.33254 -5.92676,-24.13039 -5.29175,-24.13039c0.07055,0 10.0896,2.82227 22.29592,6.3501zm-22.01369,18.13308c3.10449,12.77077 5.64453,23.21316 5.57397,23.28372c-0.14111,0.21167 -45.15629,-12.70021 -45.57963,-13.053c-0.35279,-0.28223 33.16166,-33.23221 33.93778,-33.30277c0.21167,0 2.89283,10.37184 6.06788,23.07204l0,0zm76.9068,-2.18725c12.13576,3.45727 22.01369,6.49121 21.87258,6.77344c-0.07056,0.28223 -7.76124,7.83179 -17.07472,16.72194c-13.61744,13.05299 -17.00416,16.01637 -17.42751,15.02858c-0.4939,-1.05835 -11.14796,-44.30961 -11.14796,-45.08574c0,-0.21167 0.42334,-0.21167 0.91723,-0.07056c0.42335,0.21167 10.79518,3.17505 22.86037,6.63233zm-23.00148,17.9214c3.03393,12.55909 5.50342,22.86037 5.3623,23.00149c-0.42334,0.42334 -45.01518,-12.84133 -45.08574,-13.40578c-0.07055,-0.70557 33.37332,-33.02054 33.79666,-32.5972c0.14112,0.14111 2.82228,10.51295 5.92677,23.00148l0,0zm-72.53229,5.99732c11.92408,3.38672 21.59035,6.42066 21.51979,6.70289c-0.14111,0.28223 -7.69068,7.69068 -16.7925,16.43971c-13.33522,12.84132 -16.65138,15.73415 -17.07472,14.74635c-0.35279,-0.63501 -2.82228,-10.44239 -5.50342,-21.66091c-2.75172,-11.28906 -5.15065,-21.09645 -5.36231,-21.80201c-0.35279,-0.91724 -0.14111,-1.27002 0.4939,-0.9878c0.56446,0.21168 10.79518,3.17505 22.71926,6.56177l0.00001,0zm37.11282,54.96368c-0.28223,0.28223 -44.45072,-12.0652 -44.87407,-12.55909c-0.14111,-0.07056 7.47902,-7.54957 16.93361,-16.58083l17.07472,-16.36916l5.57398,22.64871c3.10449,12.41798 5.43286,22.71926 5.29175,22.86037zm17.42751,-39.22953c11.71241,3.38672 21.30812,6.35011 21.37868,6.70289c0.14112,0.63501 -32.03275,31.67996 -32.87943,31.6094c-0.42334,0 -11.43018,-41.98124 -11.50074,-44.02738c0,-0.91723 1.4817,-0.56446 23.00149,5.71509zm-18.27419,44.80351c0.14112,0.14112 -7.54957,7.8318 -17.07472,17.07472c-9.52515,9.24293 -17.4275,16.65139 -17.63917,16.51027c-0.21168,-0.28223 -11.64186,-46.14409 -11.64186,-46.84965c0,-0.21167 46.00298,12.98244 46.35575,13.26466z" id="svg_15"/>
  <path stroke="null" d="m885.82671,111.20416c-0.54552,0.37505 -0.57962,0.61371 -0.20457,2.07979c0.20457,0.92056 3.20492,13.09243 6.6485,27.07133c3.47768,13.9789 9.23971,37.26571 12.81968,51.79012c3.57996,14.52442 6.68259,26.59401 6.88716,26.86677c0.20457,0.23866 0.61371,0.44323 0.85237,0.44323c0.51142,0 79.71383,-76.06568 80.02069,-76.81577c0.10228,-0.27276 0.06819,-0.6819 -0.10228,-0.92057c-0.20457,-0.30685 -70.47412,-20.79788 -104.05758,-30.31035c-1.87522,-0.54551 -2.38664,-0.57961 -2.86397,-0.20457l0,0zm24.13917,8.93286c0.47733,0.20457 -1.05694,1.84113 -7.60316,8.11458c-4.50053,4.29596 -8.28506,7.80773 -8.42144,7.77363c-0.20457,-0.06819 -5.48928,-20.90016 -5.52337,-21.78663c0,-0.34095 19.74094,5.08014 21.54797,5.89841l0,0zm15.71774,4.43234c5.65975,1.60246 10.43304,3.03444 10.56942,3.17082c0.13638,0.13638 -3.3413,3.71634 -7.77364,8.0123c-4.39824,4.26186 -8.08048,7.70544 -8.18277,7.63725c-0.37505,-0.37504 -5.48928,-21.78663 -5.21652,-21.78663c0.20457,0 4.97785,1.3297 10.60351,2.96626zm-10.56941,8.48962c1.46608,5.93251 2.59121,10.87627 2.52302,10.94446c-0.17048,0.13638 -20.55922,-5.62565 -21.27521,-6.0007c-0.27276,-0.13638 2.52302,-3.06854 7.63725,-7.9782c4.46643,-4.26186 8.18277,-7.73953 8.28506,-7.73953c0.10228,0 1.39789,4.84147 2.82988,10.77398l0,0zm36.37924,-1.05694c5.52337,1.60246 10.33074,3.00035 10.67169,3.17083c0.51142,0.20457 -0.81828,1.63655 -7.43268,8.0123c-4.43233,4.26186 -8.18277,7.73953 -8.31915,7.73953c-0.10229,0 -1.3297,-4.56871 -2.6935,-10.16027c-1.36379,-5.55747 -2.55711,-10.46713 -2.6594,-10.91036c-0.13638,-0.40914 -0.06819,-0.75008 0.10228,-0.75008c0.13638,0 4.80738,1.2956 10.33075,2.89806l0,0zm-12.78559,-1.46608c0.10229,0.44323 1.29561,5.3529 2.6935,10.91036c1.36379,5.59156 2.42073,10.16028 2.31845,10.16028c-0.17047,0 -13.43338,-3.78453 -19.3318,-5.52337l-2.38664,-0.6819l8.0123,-7.80773c4.39824,-4.26187 8.11458,-7.77364 8.25096,-7.80773c0.13638,0 0.34095,0.34096 0.44323,0.75009l0,0zm39.44778,9.13743c5.86432,1.70475 10.80807,3.10263 10.94446,3.17082c0.27276,0.06819 -16.09278,15.92231 -16.46783,15.92231c-0.17047,0 -5.45518,-21.20702 -5.45518,-21.92301c0,-0.13638 0.06819,-0.23867 0.13638,-0.23867c0.10228,0 4.97785,1.39789 10.84217,3.06854zm-10.84217,8.38734c1.46608,5.89842 2.59121,10.80808 2.48892,10.91036c-0.20456,0.20457 -20.49102,-5.48928 -21.20702,-5.93251c-0.23867,-0.13638 2.79578,-3.3413 7.63725,-7.9782c4.43234,-4.26186 8.11458,-7.77363 8.21687,-7.77363c0.10228,0 1.39789,4.84148 2.86397,10.77398zm-61.20031,-4.6369c5.86432,1.67065 10.73989,3.10263 10.80807,3.17083c0.06819,0.06819 -3.54587,3.71634 -8.08049,8.08048c-4.50052,4.36415 -8.31915,7.80773 -8.48963,7.63726c-0.13638,-0.17048 -1.3638,-4.84148 -2.69349,-10.36485c-1.3638,-5.52337 -2.52303,-10.39894 -2.6594,-10.84217c-0.10228,-0.40914 -0.03409,-0.75008 0.10228,-0.75008c0.17047,0 5.11423,1.36379 11.01265,3.06854l0,0zm26.25306,7.50087c5.86432,1.67065 10.73989,3.10264 10.77398,3.13673c0.06819,0.06819 -3.61406,3.64815 -8.11458,8.0123l-8.25096,7.91001l-2.62531,-10.46712c-2.35255,-9.342 -2.86397,-11.66045 -2.55711,-11.66045c0.0341,0 4.87557,1.3638 10.77398,3.06854zm-10.6376,8.76239c1.50018,6.17118 2.72759,11.21722 2.6935,11.25131c-0.06819,0.10228 -21.82073,-6.13708 -22.0253,-6.30756c-0.17047,-0.13638 16.0246,-16.05869 16.39964,-16.09279c0.10228,0 1.39789,5.01195 2.93216,11.14903l0,0zm37.16342,-1.05694c5.86432,1.67065 10.6376,3.13673 10.56941,3.27311c-0.0341,0.13638 -3.75044,3.78453 -8.25096,8.08048c-6.58031,6.30755 -8.21687,7.73954 -8.42144,7.26222c-0.23866,-0.51143 -5.38699,-21.41159 -5.38699,-21.78663c0,-0.10228 0.20457,-0.10228 0.44323,-0.0341c0.20457,0.10228 5.21652,1.53427 11.04675,3.20492zm-11.11493,8.6601c1.46608,6.06889 2.6594,11.04675 2.59121,11.11493c-0.20457,0.20457 -21.75253,-6.20527 -21.78663,-6.47803c-0.03409,-0.34095 16.12688,-15.95641 16.33145,-15.75184c0.06819,0.06819 1.3638,5.08014 2.86397,11.11493l0,0zm-35.04954,2.89806c5.76203,1.63655 10.43303,3.10264 10.39894,3.23902c-0.06819,0.13638 -3.71634,3.71634 -8.11458,7.94411c-6.44393,6.20527 -8.04639,7.60316 -8.25096,7.12583c-0.17048,-0.30686 -1.3638,-5.04604 -2.6594,-10.46713c-1.3297,-5.45517 -2.48893,-10.19437 -2.59121,-10.53531c-0.17048,-0.44323 -0.06819,-0.61371 0.23867,-0.47733c0.27276,0.10228 5.21651,1.53427 10.97855,3.17082l0,0zm17.93391,26.55992c-0.13638,0.13638 -21.47978,-5.83023 -21.68435,-6.06889c-0.06819,-0.0341 3.61406,-3.64816 8.18277,-8.0123l8.25096,-7.91001l2.6935,10.94446c1.50017,6.0007 2.6253,10.97855 2.55712,11.04674zm8.42144,-18.95675c5.65975,1.63655 10.29665,3.06854 10.33074,3.23902c0.06819,0.30685 -15.47907,15.3086 -15.88821,15.2745c-0.20457,0 -5.52337,-20.28645 -5.55747,-21.27521c0,-0.44323 0.716,-0.27276 11.11494,2.76169zm-8.83058,21.65025c0.06819,0.06819 -3.64815,3.78454 -8.25096,8.25096c-4.60281,4.46643 -8.42143,8.0464 -8.52372,7.9782c-0.10229,-0.13638 -5.62566,-22.29805 -5.62566,-22.639c0,-0.10228 22.22986,6.27346 22.40033,6.40983z" id="svg_17"/>
 </g>

</svg>